# xmcd
#
# Track frame offsets:
# 150
# 32189
# 56097
# 77287
# 97025
# 116629
# 135848
# 183025
# 204449
#
# Disc length: 3107 seconds
#
# Revision: 0
# Processed by: cddbd v1.5.2PL0 Copyright (c) Steve Scherf et al.
# Submitted via: Audion 3.0.2 (http://www.panic.com/audion/)
#
DISCID=6b0c2109
DTITLE=Rusted Root - Rusted Root Live[CD2]
DYEAR=1900
DGENRE=
TTITLE0=Ecstasy
TTITLE1=Food and Creative Love
TTITLE2=Artifical Winter
TTITLE3=Too Much
TTITLE4=Hands Are Law
TTITLE5=Jack Kerouac
TTITLE6=Cruel Sun
TTITLE7=Scattered
TTITLE8=Back To The Earth
EXTD=
EXTT0=
EXTT1=
EXTT2=
EXTT3=
EXTT4=
EXTT5=
EXTT6=
EXTT7=
EXTT8=
PLAYORDER=
